<svg width="35" height="35" viewBox="0 0 35 35" fill="none" xmlns="http://www.w3.org/2000/svg">
<path d="M17.4998 9.52155C20.2206 9.52155 22.4263 7.39008 22.4263 4.76078C22.4263 2.13147 20.2206 0 17.4998 0C14.7789 0 12.5732 2.13147 12.5732 4.76078C12.5732 7.39008 14.7789 9.52155 17.4998 9.52155Z" fill="#A12559"/>
<path d="M4.0102 14.7838C6.22497 14.7838 8.0204 13.0487 8.0204 10.9085C8.0204 8.76822 6.22497 7.0332 4.0102 7.0332C1.79543 7.0332 0 8.76822 0 10.9085C0 13.0487 1.79543 14.7838 4.0102 14.7838Z" fill="#A12559"/>
<path d="M15.0347 33.0948C12.534 31.638 5.69716 27.2016 2.38356 20.5333C1.0302 17.8103 2.03546 16.9722 3.34376 15.5155C4.25526 15.7686 5.26294 15.7126 6.1845 15.2848C7.10687 14.8571 7.78214 14.1322 8.14754 13.2867C8.57372 13.2704 8.9681 13.2475 9.33873 13.2471C9.284 13.6546 9.25664 14.0987 9.25664 14.5864C9.25664 18.5737 10.2172 22.8604 12.1111 27.3276C13.0753 29.601 14.1393 31.5742 15.0371 33.0812C15.0363 33.0851 15.0351 33.0905 15.0347 33.0948Z" fill="#A12559"/>
<path d="M10.4014 14.5856C10.4014 10.8744 11.9757 10.463 14.226 9.52148C15.0965 10.2701 16.2426 10.7259 17.5002 10.7259C18.7578 10.7259 19.9035 10.2705 20.7744 9.52148C23.0247 10.463 24.599 10.8748 24.599 14.5856C24.599 23.6739 19.4689 32.1008 17.5002 34.9995C15.5319 32.1008 10.4014 23.6743 10.4014 14.5856Z" fill="#A12559"/>
<path d="M32.6164 20.5335C29.3033 27.2021 22.4664 31.6382 19.9653 33.095C19.9649 33.0899 19.9641 33.0853 19.9629 33.0802C20.8599 31.5733 21.9247 29.6 22.8889 27.3266C24.7832 22.8594 25.7434 18.5727 25.7434 14.5854C25.7434 14.0978 25.7156 13.6536 25.6613 13.2461C26.0319 13.2461 26.4259 13.2694 26.8525 13.2858C27.2179 14.1316 27.8931 14.8561 28.8155 15.2839C29.7379 15.7116 30.7448 15.7676 31.6563 15.5145C32.9645 16.9724 33.9698 17.8109 32.6164 20.5335Z" fill="#A12559"/>
<path d="M30.9897 14.7838C33.2045 14.7838 34.9999 13.0487 34.9999 10.9085C34.9999 8.76822 33.2045 7.0332 30.9897 7.0332C28.7749 7.0332 26.9795 8.76822 26.9795 10.9085C26.9795 13.0487 28.7749 14.7838 30.9897 14.7838Z" fill="#A12559"/>
</svg>
