<svg width="444" height="71" viewBox="0 0 444 71" fill="none" xmlns="http://www.w3.org/2000/svg">
<g clip-path="url(#clip0_297_1757)">
<path d="M33.859 19.0636C39.1232 19.0636 43.3908 14.7961 43.3908 9.53182C43.3908 4.26754 39.1232 0 33.859 0C28.5947 0 24.3271 4.26754 24.3271 9.53182C24.3271 14.7961 28.5947 19.0636 33.859 19.0636Z" fill="#A12559"/>
<path d="M7.75891 29.5989C12.044 29.5989 15.5178 26.1251 15.5178 21.84C15.5178 17.5548 12.044 14.0811 7.75891 14.0811C3.47378 14.0811 0 17.5548 0 21.84C0 26.1251 3.47378 29.5989 7.75891 29.5989Z" fill="#A12559"/>
<path d="M29.0892 66.2617C24.2509 63.345 11.023 54.4625 4.6119 41.1116C1.99341 35.6597 3.93839 33.9818 6.46967 31.0651C8.23324 31.572 10.1829 31.4599 11.9659 30.6034C13.7505 29.7469 15.057 28.2956 15.764 26.6029C16.5886 26.5702 17.3516 26.5242 18.0687 26.5234C17.9628 27.3394 17.9099 28.2286 17.9099 29.205C17.9099 37.1881 19.7684 45.7708 23.4326 54.7148C25.2982 59.2666 27.3568 63.2173 29.0939 66.2344C29.0924 66.2422 29.09 66.2531 29.0892 66.2617Z" fill="#A12559"/>
<path d="M20.124 29.2036C20.124 21.7733 23.17 20.9495 27.524 19.0645C29.2081 20.5633 31.4256 21.4758 33.8588 21.4758C36.292 21.4758 38.5087 20.5641 40.1936 19.0645C44.5477 20.9495 47.5936 21.774 47.5936 29.2036C47.5936 47.3998 37.6678 64.2717 33.8588 70.0755C30.0506 64.2717 20.124 47.4006 20.124 29.2036Z" fill="#A12559"/>
<path d="M63.1051 41.112C56.6947 54.4637 43.4668 63.3453 38.6277 66.262C38.6269 66.2519 38.6254 66.2426 38.623 66.2325C40.3586 63.2153 42.4188 59.2646 44.2844 54.7128C47.9493 45.7689 49.8071 37.1862 49.8071 29.203C49.8071 28.2267 49.7534 27.3375 49.6483 26.5215C50.3654 26.5215 51.1276 26.5682 51.953 26.6009C52.6599 28.2944 53.9665 29.745 55.751 30.6014C57.5356 31.4579 59.4837 31.57 61.2473 31.0632C63.7786 33.9822 65.7236 35.6609 63.1051 41.112Z" fill="#A12559"/>
<path d="M59.9591 29.5989C64.2442 29.5989 67.718 26.1251 67.718 21.84C67.718 17.5548 64.2442 14.0811 59.9591 14.0811C55.674 14.0811 52.2002 17.5548 52.2002 21.84C52.2002 26.1251 55.674 29.5989 59.9591 29.5989Z" fill="#A12559"/>
<path d="M108.348 21.693C115.97 21.693 126.175 27.5058 124.818 41.0047H96.4642C97.3038 48.3677 103.052 51.9846 109.123 51.9846C113.774 51.9846 116.745 50.6929 119.264 48.2385L122.364 51.0804C119.328 54.6973 114.936 56.5058 109.059 56.5058C100.404 56.5058 91.168 50.6929 91.168 39.1316C91.168 27.5058 100.727 21.693 108.348 21.693ZM108.348 26.2787C103.375 26.2787 97.433 29.831 96.4642 37.0648H120.168C119.522 29.831 113.386 26.2787 108.348 26.2787ZM146.713 21.693C152.785 21.693 158.081 24.4702 160.987 29.8956L156.789 31.7041C154.658 28.3455 151.235 26.4079 146.778 26.4079C141.223 26.4079 134.636 30.6061 134.636 39.1316C134.636 47.5926 141.223 51.7263 146.778 51.7263C151.235 51.7263 154.658 49.8532 156.789 46.4947L161.052 48.3031C158.081 53.7285 152.785 56.4412 146.713 56.4412C139.028 56.4412 129.469 50.7574 129.469 39.1316C129.469 27.5058 139.028 21.693 146.713 21.693ZM182.43 21.693C190.052 21.693 199.675 27.5058 199.675 39.1316C199.675 50.7574 190.052 56.5058 182.43 56.5058C174.809 56.5058 165.25 50.7574 165.25 39.1316C165.25 27.5058 174.809 21.693 182.43 21.693ZM182.43 26.4079C177.005 26.4079 170.417 30.6061 170.417 39.1316C170.417 47.5926 177.005 51.7909 182.43 51.7909C187.92 51.7909 194.508 47.5926 194.508 39.1316C194.508 30.6061 187.92 26.4079 182.43 26.4079ZM221.442 21.693C227.513 21.693 232.809 24.4702 235.715 29.8956L231.517 31.7041C229.386 28.3455 225.963 26.4079 221.506 26.4079C215.952 26.4079 209.364 30.6061 209.364 39.1316C209.364 47.5926 215.952 51.7263 221.506 51.7263C225.963 51.7263 229.386 49.8532 231.517 46.4947L235.78 48.3031C232.809 53.7285 227.513 56.4412 221.442 56.4412C213.756 56.4412 204.197 50.7574 204.197 39.1316C204.197 27.5058 213.756 21.693 221.442 21.693ZM257.159 21.693C264.78 21.693 274.403 27.5058 274.403 39.1316C274.403 50.7574 264.78 56.5058 257.159 56.5058C249.537 56.5058 239.978 50.7574 239.978 39.1316C239.978 27.5058 249.537 21.693 257.159 21.693ZM257.159 26.4079C251.733 26.4079 245.145 30.6061 245.145 39.1316C245.145 47.5926 251.733 51.7909 257.159 51.7909C262.648 51.7909 269.236 47.5926 269.236 39.1316C269.236 30.6061 262.648 26.4079 257.159 26.4079ZM297.72 21.7575C304.243 21.7575 310.573 25.9557 310.573 36.3544V55.8599H305.276V36.4836C305.276 29.4435 301.595 26.4079 296.622 26.4079C290.615 26.4079 286.481 31.9624 285.642 36.0314V55.8599H280.346V22.2742H285.642V30.0894C286.288 27.7642 290.357 21.7575 297.72 21.7575ZM334.535 21.7575C341.058 21.7575 347.388 25.9557 347.388 36.3544V55.8599H342.091V36.4836C342.091 29.4435 338.41 26.4079 333.437 26.4079C327.43 26.4079 323.296 31.9624 322.457 36.0314V55.8599H317.161V22.2742H322.457V30.0894C323.103 27.7642 327.172 21.7575 334.535 21.7575ZM369.735 21.693C377.356 21.693 387.561 27.5058 386.205 41.0047H357.851C358.691 48.3677 364.439 51.9846 370.51 51.9846C375.16 51.9846 378.131 50.6929 380.65 48.2385L383.751 51.0804C380.715 54.6973 376.323 56.5058 370.446 56.5058C361.791 56.5058 352.555 50.6929 352.555 39.1316C352.555 27.5058 362.114 21.693 369.735 21.693ZM369.735 26.2787C364.762 26.2787 358.82 29.831 357.851 37.0648H381.555C380.909 29.831 374.773 26.2787 369.735 26.2787ZM408.1 21.693C414.171 21.693 419.468 24.4702 422.374 29.8956L418.176 31.7041C416.044 28.3455 412.621 26.4079 408.165 26.4079C402.61 26.4079 396.022 30.6061 396.022 39.1316C396.022 47.5926 402.61 51.7263 408.165 51.7263C412.621 51.7263 416.044 49.8532 418.176 46.4947L422.439 48.3031C419.468 53.7285 414.171 56.4412 408.1 56.4412C400.414 56.4412 390.855 50.7574 390.855 39.1316C390.855 27.5058 400.414 21.693 408.1 21.693ZM443.301 26.7308H436.196V48.3677C436.196 50.3699 436.971 51.5971 438.909 51.5971C440.588 51.5971 441.815 51.2096 443.236 50.5637V55.0848C441.815 55.7953 440.136 56.2474 437.488 56.2474C434.064 56.2474 430.964 54.6973 430.964 48.8198V26.7308H426.314V22.2742H430.964V14.3945H436.196V22.2742H443.301V26.7308Z" fill="#5F1854"/>
</g>
<defs>
<clipPath id="clip0_297_1757">
<rect width="443.3" height="70.0754" fill="white"/>
</clipPath>
</defs>
</svg>
